<?xml version="1.0" standalone="no"?>
<!DOCTYPE svg PUBLIC "-//W3C//DTD SVG 20010904//EN"
 "http://www.w3.org/TR/2001/REC-SVG-20010904/DTD/svg10.dtd">
<svg version="1.0" xmlns="http://www.w3.org/2000/svg"
 width="417.000000pt" height="417.000000pt" viewBox="0 0 417.000000 417.000000"
 preserveAspectRatio="xMidYMid meet">
<metadata>
Created by potrace 1.11, written by Peter Selinger 2001-2013
</metadata>
<g transform="translate(0.000000,417.000000) scale(0.100000,-0.100000)"
fill="#000000" stroke="none">
<path d="M2575 3943 c-135 -19 -328 -97 -468 -190 -98 -65 -270 -239 -340
-344 -56 -83 -117 -226 -117 -278 0 -17 -4 -22 -15 -17 -83 31 -149 41 -295
41 -127 0 -171 -4 -245 -23 -122 -30 -308 -124 -412 -207 -225 -180 -376 -446
-390 -685 -10 -183 46 -322 181 -455 l82 -81 -23 -144 c-61 -383 -65 -420 -60
-565 6 -159 20 -223 76 -340 96 -200 266 -344 476 -400 193 -51 459 -19 658
82 l68 34 27 -19 c48 -34 146 -79 222 -104 64 -20 95 -23 220 -23 171 0 247
18 388 89 461 233 853 761 1088 1464 122 364 195 780 179 1017 -22 335 -144
617 -359 831 -166 165 -345 262 -568 308 -72 15 -292 20 -373 9z m267 -584
c148 -31 300 -153 371 -299 62 -126 80 -220 74 -380 -6 -152 -21 -250 -72
-457 -154 -622 -462 -1134 -815 -1355 -79 -49 -118 -63 -180 -62 -99 0 -189
70 -230 180 -22 61 -40 187 -40 289 0 38 -3 100 -6 137 l-7 67 -61 -99 c-157
-257 -340 -465 -456 -519 -162 -76 -288 -61 -342 41 -35 66 -30 187 21 494 69
418 73 596 14 714 -39 77 -77 100 -164 100 -51 0 -69 4 -69 13 0 35 69 146
125 203 110 110 286 174 394 144 55 -14 105 -62 121 -115 9 -29 14 -197 17
-617 3 -318 8 -578 12 -577 11 1 130 143 202 241 174 237 245 440 191 548 -20
41 -89 80 -139 80 -33 0 -34 0 -19 28 39 69 149 163 253 214 59 28 78 33 148
33 96 0 131 -19 164 -90 28 -59 36 -145 56 -605 19 -442 22 -470 41 -470 39 0
188 177 273 325 198 346 334 985 277 1306 -16 90 -43 147 -88 184 -28 24 -39
27 -84 23 -62 -5 -115 -32 -208 -105 -94 -74 -157 -103 -224 -103 -100 0 -165
54 -165 135 0 53 42 115 143 208 138 128 307 180 472 146z"/>
</g>
</svg>
